<svg xmlns="http://www.w3.org/2000/svg" viewBox="0 0 512 512" role="img" aria-labelledby="title desc">
  <title id="title">The Quiz Show</title>
  <desc id="desc">Premium trivia trophy icon</desc>
  <defs>
    <radialGradient id="bg" cx="50%" cy="22%" r="76%">
      <stop offset="0%" stop-color="#45c2ff"/>
      <stop offset="42%" stop-color="#0b2457"/>
      <stop offset="100%" stop-color="#030612"/>
    </radialGradient>
    <linearGradient id="gold" x1="20%" y1="0%" x2="80%" y2="100%">
      <stop offset="0%" stop-color="#fff7c9"/>
      <stop offset="46%" stop-color="#f7ca67"/>
      <stop offset="100%" stop-color="#9f641f"/>
    </linearGradient>
  </defs>
  <rect width="512" height="512" rx="112" fill="url(#bg)"/>
  <circle cx="256" cy="256" r="190" fill="none" stroke="rgba(255,255,255,.16)" stroke-width="14"/>
  <path fill="url(#gold)" d="M168 130h176v48h50c10 0 18 8 18 18v40c0 54-39 98-90 107-8 25-27 45-50 55v36h62v42H178v-42h62v-36c-23-10-42-30-50-55-51-9-90-53-90-107v-40c0-10 8-18 18-18h50v-48Zm44 42v128c0 24 20 44 44 44s44-20 44-44V172h-88Zm-70 48v16c0 27 18 51 43 59V220h-43Zm185 75c25-8 43-32 43-59v-16h-43v75Z"/>
  <path fill="#ffffff" fill-opacity=".9" d="M254 205c25 0 43 17 43 39 0 18-10 29-24 38-9 6-12 10-12 20v7h-31v-10c0-20 10-31 25-41 9-6 12-10 12-17 0-9-7-15-18-15-12 0-23 6-33 17l-21-22c14-11 31-16 59-16Zm-25 124h34v32h-34v-32Z"/>
</svg>
